<svg xmlns="http://www.w3.org/2000/svg" viewBox="0 0 64 64" width="64" height="64" role="img" aria-labelledby="title desc">
  <title id="title">IncidentMind logo concept 5</title>
  <desc id="desc">A signal beacon mark: a stable core sending trusted guidance outward, representing clarity, control, and operational visibility.</desc>
  <defs>
    <linearGradient id="bg" x1="0%" y1="0%" x2="100%" y2="100%">
      <stop offset="0%" stop-color="#05060d"/>
      <stop offset="100%" stop-color="#0a0f1d"/>
    </linearGradient>
    <linearGradient id="beam" x1="20" y1="44" x2="44" y2="20" gradientUnits="userSpaceOnUse">
      <stop offset="0%" stop-color="#10b981"/>
      <stop offset="50%" stop-color="#06b6d4"/>
      <stop offset="100%" stop-color="#6366f1"/>
    </linearGradient>
    <linearGradient id="ring" x1="18" y1="18" x2="46" y2="46" gradientUnits="userSpaceOnUse">
      <stop offset="0%" stop-color="#6366f1"/>
      <stop offset="100%" stop-color="#8b5cf6"/>
    </linearGradient>
  </defs>

  <rect width="64" height="64" rx="16" fill="url(#bg)"/>

  <g fill="none" stroke-linecap="round" stroke-linejoin="round">
    <path d="M22 44L32 20L42 44" stroke="url(#beam)" stroke-width="3"/>
    <path d="M26 34H38" stroke="url(#beam)" stroke-width="2.6"/>
    <path d="M18 48H46" stroke="url(#ring)" stroke-width="2.4" opacity="0.9"/>
  </g>

  <circle cx="32" cy="20" r="4.2" fill="#eef2ff"/>
  <path d="M22 17c2.8-3 6.1-4.5 10-4.5S39.2 14 42 17" fill="none" stroke="#6366f1" stroke-width="2" stroke-linecap="round" opacity="0.9"/>
  <path d="M17 13c4.2-4.6 9.2-7 15-7s10.8 2.4 15 7" fill="none" stroke="#8b5cf6" stroke-width="1.8" stroke-linecap="round" opacity="0.7"/>

  <circle cx="22" cy="44" r="3.2" fill="#08201b" stroke="#10b981" stroke-width="1.4"/>
  <circle cx="42" cy="44" r="3.2" fill="#101327" stroke="#6366f1" stroke-width="1.4"/>
  <circle cx="32" cy="48" r="3.2" fill="#120d23" stroke="#8b5cf6" stroke-width="1.4"/>
</svg>
